# xmcd
#
# Track frame offsets:
#	150
#	14947
#	33472
#	48706
#	66801
#	83715
#	105104
#	124389
#	137071
#	155311
#	170852
#	188919
#	203744
#	218851
#	236797
#	255500
#	275024
#	288032
#	305982
#	323194
#	339161
#
# Disc length: 4761 seconds
#
# Revision: 2
# Processed by: cddbd v1.5.1PL0 Copyright (c) Steve Scherf et al.
# Submitted via: EasyCDDAExtractor 8.1.4.1
#
DISCID=3f129715
DTITLE=Various Artist - 2005-07 Urban
DYEAR=2005
DGENRE=Urban
TTITLE0=R. Kelly - Trapped In The Closet (Chapter 2 of 5)
TTITLE1=Bow Wow feat. Omarion - Let Me Hold You
TTITLE2=Fat Joe feat. Nelly - Get It Poppin'
TTITLE3=Young Jeezy feat. Manny Fresh - And The What
TTITLE4=Ying Yang Twins feat. Mike Jones - Badd
TTITLE5=T.I. - ASAP (Remix)
TTITLE6=112 - What If
TTITLE7=Jermaine Dupri - Gotta Getcha
TTITLE8=Memphis Bleek feat. Boxie - Infatuated
TTITLE9=Tony Yayo feat. 50 Cent - So Seductive
TTITLE10=Master P feat. Lil' Romeo - I Need Dubs
TTITLE11=Mashonda feat. Nas - Black Out
TTITLE12=Amerie feat. T.I. - Touch (Remix)
TTITLE13=Bobby Valentino - Tell Me
TTITLE14=Common feat. Scarface and Mos Def - The Corner (Remix)
TTITLE15=Mariah Carey feat. Jadakiss and Styles P - We Belong Together (Remix)
TTITLE16=Jay-Z - Dear Summer
TTITLE17=YoungBloodz - George Bush
TTITLE18=Paul Wall Feat. Big Pokey Of The S.U.C. - Sittin Sidewayz
TTITLE19=Mario Feat. Smitty - Couldn't Say No (Remix)
TTITLE20=Various Artist - Get No Ooh Wee
EXTD=
EXTT0=
EXTT1=
EXTT2=
EXTT3=
EXTT4=
EXTT5=
EXTT6=
EXTT7=
EXTT8=
EXTT9=
EXTT10=
EXTT11=
EXTT12=
EXTT13=
EXTT14=
EXTT15=
EXTT16=
EXTT17=
EXTT18=
EXTT19=
EXTT20=
PLAYORDER=
